<svg width="45" height="45" viewBox="0 0 45 45" fill="none" xmlns="http://www.w3.org/2000/svg">
<path d="M24.8458 26.1959C25.8321 26.1959 26.7583 25.8118 27.4548 25.1152C28.7017 23.8683 29.9169 18.9987 30.1479 18.0352C30.2038 17.8021 30.1341 17.5559 29.9645 17.387C29.7948 17.2166 29.5479 17.149 29.3162 17.2035C28.3527 17.4346 23.4824 18.6511 22.2362 19.8973C20.7976 21.3359 20.7976 23.6766 22.2362 25.1152C22.9334 25.8125 23.8596 26.1959 24.8452 26.1959H24.8458ZM23.2121 20.8725C23.8424 20.2421 26.4624 19.3863 28.5217 18.8304C27.9658 20.8897 27.1107 23.509 26.4796 24.1401C25.6072 25.0132 24.0852 25.0139 23.2121 24.1401C22.3114 23.2394 22.3114 21.7732 23.2121 20.8725Z" fill="#313131"/>
<path d="M3.3468 39.4159L5.12749 39.5373C5.26197 39.5449 5.40266 39.5456 5.53784 39.5456C7.64197 39.5456 9.62473 38.5242 10.8454 36.8084C11.082 36.4697 11.4096 36.2042 11.7951 36.0387L15.4034 34.4849L16.5599 35.6415C16.6896 35.7711 16.864 35.8435 17.0475 35.8435C17.2309 35.8435 17.4061 35.7711 17.5351 35.6415L20.6599 32.5166L21.6102 33.467C21.744 33.6008 21.9206 33.669 22.0978 33.669C22.2468 33.669 22.3958 33.6215 22.5206 33.5242L42.4923 18.0139C42.6489 17.8925 42.7454 17.7097 42.7578 17.5118C42.7702 17.3139 42.6971 17.1208 42.5571 16.9808L34.3061 8.72973V8.72904L30.3709 4.79456C30.2309 4.65525 30.0371 4.58284 29.8399 4.59387C29.6427 4.60629 29.4592 4.70284 29.3378 4.85939L13.8275 24.8304C13.6144 25.1049 13.6392 25.4953 13.8847 25.7408L14.8351 26.6911L11.7103 29.8159C11.4406 30.0856 11.4406 30.5215 11.7103 30.7911L12.1951 31.2759L10.1296 32.1649C9.02887 32.6353 8.08611 33.3973 7.40542 34.3635C6.97301 34.9663 6.27439 35.3263 5.53784 35.3263C5.50198 35.3263 5.46611 35.3277 5.39784 35.3208L3.57784 35.2056H3.48542C2.37991 35.2056 1.45784 36.0718 1.38404 37.1794C1.31163 38.3394 2.19301 39.3428 3.3468 39.4159ZM39.3261 18.7263L36.6247 16.0249L38.1378 14.5118L41.0296 17.4035L39.3261 18.7263ZM32.3047 11.7049L33.8178 10.1918L37.1627 13.5366L35.6496 15.0497L32.3047 11.7049ZM29.9482 6.32215L32.8427 9.21663L31.3296 10.7297L28.6254 8.0256L29.9482 6.32215ZM27.7723 9.12353L35.1606 16.5118L38.2268 19.5773L22.1537 32.0594L15.2889 25.1939L27.7709 9.12215L27.7723 9.12353ZM15.8103 27.6663L17.7475 29.6035L19.6847 31.5408L17.0475 34.178L16.0447 33.1753C16.0406 33.1711 16.0365 33.1663 16.0316 33.1621L13.8882 31.018C13.8834 31.0132 13.8785 31.0077 13.873 31.0028L13.173 30.3028L15.8103 27.6663ZM3.48542 36.5842L3.53301 36.5828L5.27577 36.6939C5.36542 36.7042 5.45646 36.7056 5.53715 36.7056C6.71715 36.7056 7.8337 36.1311 8.52887 35.1635C9.06542 34.4015 9.8068 33.8035 10.673 33.4332L13.2447 32.327L14.353 33.4353L11.2503 34.7711C10.6296 35.0373 10.0978 35.4684 9.71715 36.0139C8.75784 37.3615 7.19577 38.1663 5.53646 38.1663C5.43232 38.1663 5.31508 38.1663 5.21301 38.1608L3.43577 38.0401C3.03784 38.0146 2.7337 37.6677 2.75991 37.2684C2.78473 36.8849 3.10335 36.5849 3.48473 36.5849L3.48542 36.5842Z" fill="#313131"/>
</svg>
