<svg width="45" height="45" viewBox="0 0 45 45" fill="none" xmlns="http://www.w3.org/2000/svg">
<path d="M22.0693 31.4481C22.0693 19.8619 33.6555 9.93091 34.2073 9.93091C32.5521 12.1378 25.3797 21.5171 25.3797 30.8964C25.3797 31.9999 26.4831 31.9999 26.4831 33.655C26.4831 35.3102 24.828 35.3102 24.2762 35.3102C23.7245 35.3102 22.0693 34.7585 22.0693 31.4481Z" stroke="#313131" stroke-width="1.10344" stroke-linecap="round" stroke-linejoin="round"/>
<path d="M38.621 30.8967C38.621 30.8967 35.8624 29.7933 30.3452 29.7933C30.0958 29.7933 29.8679 29.8004 29.6594 29.8126C29.4322 29.8262 29.2113 29.8925 29.0143 30.0062C28.8172 30.12 28.6493 30.278 28.5238 30.4679C28.3984 30.6578 28.3189 30.8743 28.2916 31.1002C28.2644 31.3261 28.2901 31.5553 28.3667 31.7695C28.5821 32.3749 28.6915 33.0128 28.69 33.6553C28.69 34.3003 28.477 37.5174 24.2762 37.5174C22.7496 37.5174 19.8624 36.2484 19.8624 31.4484C19.8625 31.1064 19.7427 30.7751 19.5239 30.5122C19.3051 30.2493 19.001 30.0715 18.6646 30.0095C17.785 29.8564 16.8932 29.784 16.0003 29.7933C12.1383 29.7933 5.51758 31.4484 5.51758 31.4484" stroke="#313131" stroke-width="1.10344" stroke-linecap="round" stroke-linejoin="round"/>
<path d="M12.6901 6.62085C15.0244 12.2231 18.759 14.5574 18.759 18.7588C18.759 20.3684 18.1196 21.912 16.9815 23.0502C15.8433 24.1883 14.2996 24.8277 12.6901 24.8277C11.0805 24.8277 9.5368 24.1883 8.39865 23.0502C7.2605 21.912 6.62109 20.3684 6.62109 18.7588C6.62109 14.5574 10.3557 12.2231 12.6901 6.62085Z" stroke="#313131" stroke-width="1.10344" stroke-linecap="round" stroke-linejoin="round"/>
<path d="M13.7927 19.3105V20.9657C13.7927 21.112 13.7346 21.2524 13.6311 21.3558C13.5276 21.4593 13.3873 21.5174 13.241 21.5174H12.1375C11.9912 21.5174 11.8509 21.4593 11.7474 21.3558C11.6439 21.2524 11.5858 21.112 11.5858 20.9657V19.3105H9.93063C9.7843 19.3105 9.64397 19.2524 9.5405 19.1489C9.43703 19.0455 9.37891 18.9051 9.37891 18.7588V17.6553C9.37891 17.509 9.43703 17.3687 9.5405 17.2652C9.64397 17.1618 9.7843 17.1036 9.93063 17.1036H11.5858V15.4485C11.5858 15.3021 11.6439 15.1618 11.7474 15.0583C11.8509 14.9549 11.9912 14.8967 12.1375 14.8967H13.241C13.3873 14.8967 13.5276 14.9549 13.6311 15.0583C13.7346 15.1618 13.7927 15.3021 13.7927 15.4485V17.1036H15.4479C15.5942 17.1036 15.7345 17.1618 15.838 17.2652C15.9415 17.3687 15.9996 17.509 15.9996 17.6553V18.7588C15.9996 18.9051 15.9415 19.0455 15.838 19.1489C15.7345 19.2524 15.5942 19.3105 15.4479 19.3105H13.7927Z" stroke="#313131" stroke-width="1.10344" stroke-linecap="round" stroke-linejoin="round"/>
</svg>
