<svg width="45" height="45" viewBox="0 0 45 45" fill="none" xmlns="http://www.w3.org/2000/svg">
<g clip-path="url(#clip0_84_88)">
<path d="M32.4147 24.6234V8.68963C32.4147 8.08273 31.9181 7.58618 31.3112 7.58618H11.4492C10.8423 7.58618 10.3457 8.08273 10.3457 8.68963V34.0689L13.7035 33.0604C13.9098 32.9986 14.1305 32.9986 14.338 33.0604L17.7057 34.0689L21.0624 33.0604C21.2698 32.9986 21.4905 32.9986 21.6969 33.0604L25.0547 34.0689L26.9747 33.4951" stroke="#313131" stroke-width="1.5" stroke-miterlimit="10" stroke-linecap="round" stroke-linejoin="round"/>
<path d="M15.8613 13.1035H26.8958" stroke="#313131" stroke-width="1.5" stroke-miterlimit="10" stroke-linecap="round" stroke-linejoin="round"/>
<path d="M15.8613 18.6211H26.8958" stroke="#313131" stroke-width="1.5" stroke-miterlimit="10" stroke-linecap="round" stroke-linejoin="round"/>
<path d="M15.8613 24.1382H24.6889" stroke="#313131" stroke-width="1.5" stroke-miterlimit="10" stroke-linecap="round" stroke-linejoin="round"/>
<path d="M35.1723 40.6899C39.743 40.6899 43.4482 36.9847 43.4482 32.414C43.4482 27.8434 39.743 24.1382 35.1723 24.1382C30.6017 24.1382 26.8965 27.8434 26.8965 32.414C26.8965 36.9847 30.6017 40.6899 35.1723 40.6899Z" stroke="#313131" stroke-width="1.5" stroke-miterlimit="10" stroke-linecap="round" stroke-linejoin="round"/>
<path d="M31.3125 31.8622L34.6228 35.1725L39.0366 29.6553" stroke="#313131" stroke-width="1.5" stroke-miterlimit="10" stroke-linecap="round" stroke-linejoin="round"/>
</g>
<defs>
<clipPath id="clip0_84_88">
<rect width="44.1379" height="44.1379" fill="white"/>
</clipPath>
</defs>
</svg>
