<svg width="138" height="43" viewBox="0 0 138 43" fill="none" xmlns="http://www.w3.org/2000/svg">
<path d="M26.9302 11.8841C26.9302 14.1978 26.2273 16.1455 24.8214 17.727C23.4156 19.2793 21.1751 20.319 18.0999 20.8462L27.8088 32.532C28.5996 33.4985 29.4782 34.2014 30.4447 34.6408C31.4112 35.0508 32.5388 35.3583 33.8274 35.5633V37.2327H25.3486L14.5853 23.4382C14.0874 22.7645 13.6188 22.2666 13.1795 21.9445C12.7402 21.6223 12.2277 21.4173 11.6419 21.3294C11.0854 21.2416 10.3533 21.1976 9.44533 21.1976V30.3354C9.44533 31.7705 9.57712 32.8688 9.84071 33.6303C10.1336 34.3918 10.7047 34.9043 11.5541 35.1679C12.4327 35.4315 13.7506 35.5633 15.5079 35.5633V37.2327H0V35.5633C1.37653 35.5047 2.4016 35.3583 3.07522 35.124C3.77813 34.8604 4.24674 34.3772 4.48104 33.6743C4.71534 32.9713 4.83249 31.9316 4.83249 30.5551V10.0829C4.83249 8.70637 4.72999 7.6813 4.52497 7.00768C4.31996 6.30477 3.89528 5.82152 3.25095 5.55793C2.63591 5.29434 1.69869 5.13326 0.439318 5.07468V3.40528H14.2339C18.2463 3.40528 21.3655 4.15211 23.5914 5.64579C25.8172 7.13947 26.9302 9.21891 26.9302 11.8841ZM9.44533 6.21691V19.001H12.5645C15.464 19.001 17.6313 18.4592 19.0664 17.3756C20.5015 16.2919 21.219 14.5347 21.219 12.1038C21.219 9.76074 20.6479 8.07669 19.5057 7.05161C18.3928 5.99725 16.6355 5.47007 14.2339 5.47007H10.1922C9.69427 5.47007 9.44533 5.71901 9.44533 6.21691Z" fill="white"/>
<path d="M34.7099 37.672C33.8605 37.672 33.2162 37.4524 32.7769 37.0131C32.3668 36.5445 32.1618 35.8123 32.1618 34.8165C32.1618 33.9671 32.2936 33.0592 32.5572 32.0927C32.8501 31.0969 33.2601 29.8522 33.7873 28.3585L35.7642 22.7352C36.1743 21.593 36.4671 20.6705 36.6429 19.9675C36.8186 19.2354 36.9064 18.6789 36.9064 18.2981C36.9064 17.8881 36.8332 17.6245 36.6868 17.5074C36.5696 17.3609 36.4378 17.2877 36.2914 17.2877C35.8814 17.2877 35.3981 17.5367 34.8417 18.0345C34.3145 18.5324 33.8312 19.0743 33.3919 19.66C32.9526 20.2458 32.6451 20.6997 32.4693 21.0219L31.1953 20.2311C31.5468 19.5575 32.03 18.84 32.6451 18.0785C33.2894 17.317 34.007 16.5848 34.7977 15.8819C35.6178 15.179 36.4378 14.6079 37.2579 14.1686C38.1072 13.7292 38.9127 13.5096 39.6741 13.5096C40.4063 13.5096 40.9482 13.7292 41.2996 14.1686C41.6804 14.5786 41.8707 15.3401 41.8707 16.453C41.8707 17.0095 41.7536 17.7124 41.5193 18.5617C41.285 19.3818 40.9628 20.3629 40.5528 21.5052C40.1428 22.6181 39.6595 23.9214 39.103 25.4151L37.4776 29.8522C37.419 30.0572 37.3018 30.3794 37.1261 30.8187C36.9797 31.258 36.8479 31.712 36.7307 32.1806C36.6136 32.6199 36.555 32.986 36.555 33.2789C36.555 33.5425 36.6282 33.7768 36.7747 33.9818C36.9211 34.1868 37.1554 34.2893 37.4776 34.2893C37.9169 34.2893 38.3708 34.1136 38.8394 33.7621C39.308 33.4107 39.762 32.9713 40.2013 32.4442C40.6699 31.917 41.0653 31.4044 41.3875 30.9066C41.7389 30.4087 42.0025 30.0133 42.1783 29.7204L43.4962 30.4672C43.1448 31.1701 42.6615 31.9463 42.0465 32.7956C41.4607 33.6157 40.7871 34.4065 40.0256 35.1679C39.2641 35.9001 38.4294 36.5005 37.5215 36.9691C36.6136 37.4377 35.6764 37.672 34.7099 37.672ZM42.2222 6.30477C41.49 6.30477 40.8457 6.05582 40.2892 5.55793C39.762 5.06004 39.4984 4.41571 39.4984 3.62493C39.4984 2.83416 39.762 2.16054 40.2892 1.60407C40.8164 1.0476 41.4607 0.76937 42.2222 0.76937C43.0423 0.76937 43.7159 1.0476 44.243 1.60407C44.7702 2.16054 45.0338 2.81952 45.0338 3.581C45.0338 4.34249 44.7556 4.98682 44.1991 5.514C43.6427 6.04118 42.9837 6.30477 42.2222 6.30477Z" fill="white"/>
<path d="M71.6015 22.6035C72.1287 21.1391 72.5095 20.0701 72.7438 19.3964C72.9781 18.6935 73.1245 18.1956 73.1831 17.9028C73.2417 17.5806 73.271 17.3024 73.271 17.0681C73.271 16.2187 72.9781 15.794 72.3923 15.794C71.6015 15.794 70.6643 16.3359 69.5807 17.4195C68.497 18.5032 67.3255 20.0408 66.0661 22.0323C65.6268 22.7352 65.2168 23.4528 64.8361 24.185C64.4553 24.9172 64.0453 25.8105 63.606 26.8648C63.1959 27.8899 62.6834 29.2371 62.0684 30.9066C61.4826 32.5467 60.7358 34.6554 59.8278 37.2327H55.6983L58.5977 28.4024C59.4178 25.913 60.0475 23.936 60.4868 22.4717C60.9554 20.978 61.2776 19.8357 61.4533 19.045C61.6583 18.2542 61.7608 17.6538 61.7608 17.2438C61.7608 16.2773 61.3947 15.794 60.6625 15.794C60.0768 15.794 59.3739 16.1308 58.5538 16.8045C57.763 17.4488 56.9283 18.3274 56.0497 19.4404C55.2004 20.5533 54.3803 21.7834 53.5895 23.1306C52.828 24.4779 52.1837 25.8544 51.6565 27.2602L47.9663 37.2327H44.1003L47.3512 27.1724C48.0834 24.8879 48.6399 23.0867 49.0206 21.7687C49.4307 20.4508 49.7089 19.455 49.8553 18.7814C50.0311 18.0785 50.1189 17.5367 50.1189 17.1559C50.1189 16.3359 49.87 15.9258 49.3721 15.9258C48.9621 15.9258 48.4495 16.2626 47.8345 16.9363C47.2487 17.5806 46.663 18.4446 46.0772 19.5282C45.4914 20.5826 44.9789 21.7395 44.5396 22.9988L43.2216 22.3399C45.2425 16.453 47.8491 13.5096 51.0415 13.5096C51.9787 13.5096 52.6377 13.7732 53.0184 14.3004C53.4284 14.8275 53.6335 15.7062 53.6335 16.9363C53.6335 18.3421 53.3845 19.6893 52.8866 20.978L53.0184 21.1098C54.3657 18.591 55.7568 16.702 57.1919 15.4426C58.6563 14.1539 60.15 13.5096 61.673 13.5096C62.8152 13.5096 63.7085 13.861 64.3528 14.5639C64.9971 15.2668 65.3193 16.2187 65.3193 17.4195C65.3193 17.8295 65.2607 18.2981 65.1436 18.8253C65.0557 19.3525 64.8653 20.1286 64.5725 21.1537L64.6603 21.2855C65.7733 19.4111 66.7983 17.9174 67.7356 16.8045C68.7021 15.6622 69.6539 14.8275 70.5911 14.3004C71.5283 13.7732 72.5095 13.5096 73.5345 13.5096C74.296 13.5096 74.9257 13.6414 75.4236 13.905C75.9508 14.1686 76.3315 14.5932 76.5658 15.179C76.8294 15.7355 76.9612 16.453 76.9612 17.3316C76.9612 18.1517 76.7855 19.1768 76.434 20.4069C76.1119 21.6077 75.5554 23.3796 74.7646 25.7226C74.2667 27.2163 73.8714 28.4171 73.5785 29.325C73.2856 30.2329 73.0659 30.9358 72.9195 31.4337C72.7731 31.9316 72.6706 32.327 72.612 32.6199C72.5827 32.8835 72.568 33.1471 72.568 33.4107C72.568 33.9671 72.7145 34.2454 73.0074 34.2454C73.3002 34.2454 73.681 34.0696 74.1496 33.7182C74.6475 33.3374 75.2479 32.7663 75.9508 32.0048C76.6537 31.2434 77.4738 30.2769 78.411 29.1054L79.5532 29.7204C79.0553 30.6869 78.4256 31.6534 77.6641 32.6199C76.9026 33.5571 76.0826 34.4065 75.204 35.1679C74.3253 35.9294 73.476 36.5445 72.6559 37.0131C71.8359 37.4524 71.1183 37.672 70.5033 37.672C69.7711 37.672 69.1853 37.3645 68.746 36.7495C68.336 36.1051 68.1309 35.2558 68.1309 34.2014C68.1309 33.85 68.1749 33.4546 68.2627 33.0153C68.3506 32.5467 68.5117 31.917 68.746 31.1262C68.9803 30.3354 69.3171 29.2664 69.7564 27.9192C70.225 26.5427 70.8401 24.7708 71.6015 22.6035Z" fill="white"/>
<path d="M107.191 22.6035C107.719 21.1391 108.099 20.0701 108.334 19.3964C108.568 18.6935 108.714 18.1956 108.773 17.9028C108.832 17.5806 108.861 17.3024 108.861 17.0681C108.861 16.2187 108.568 15.794 107.982 15.794C107.191 15.794 106.254 16.3359 105.171 17.4195C104.087 18.5032 102.915 20.0408 101.656 22.0323C101.217 22.7352 100.807 23.4528 100.426 24.185C100.045 24.9172 99.6351 25.8105 99.1958 26.8648C98.7858 27.8899 98.2733 29.2371 97.6582 30.9066C97.0725 32.5467 96.3256 34.6554 95.4177 37.2327H91.2881L94.1876 28.4024C95.0077 25.913 95.6374 23.936 96.0767 22.4717C96.5453 20.978 96.8674 19.8357 97.0432 19.045C97.2482 18.2542 97.3507 17.6538 97.3507 17.2438C97.3507 16.2773 96.9846 15.794 96.2524 15.794C95.6666 15.794 94.9637 16.1308 94.1437 16.8045C93.3529 17.4488 92.5182 18.3274 91.6396 19.4404C90.7902 20.5533 89.9702 21.7834 89.1794 23.1306C88.4179 24.4779 87.7736 25.8544 87.2464 27.2602L83.5561 37.2327H79.6901L82.9411 27.1724C83.6733 24.8879 84.2297 23.0867 84.6105 21.7687C85.0205 20.4508 85.2988 19.455 85.4452 18.7814C85.6209 18.0785 85.7088 17.5367 85.7088 17.1559C85.7088 16.3359 85.4598 15.9258 84.9619 15.9258C84.5519 15.9258 84.0394 16.2626 83.4243 16.9363C82.8386 17.5806 82.2528 18.4446 81.6671 19.5282C81.0813 20.5826 80.5688 21.7395 80.1294 22.9988L78.8115 22.3399C80.8324 16.453 83.439 13.5096 86.6313 13.5096C87.5686 13.5096 88.2275 13.7732 88.6083 14.3004C89.0183 14.8275 89.2233 15.7062 89.2233 16.9363C89.2233 18.3421 88.9744 19.6893 88.4765 20.978L88.6083 21.1098C89.9555 18.591 91.3467 16.702 92.7818 15.4426C94.2462 14.1539 95.7399 13.5096 97.2628 13.5096C98.4051 13.5096 99.2983 13.861 99.9427 14.5639C100.587 15.2668 100.909 16.2187 100.909 17.4195C100.909 17.8295 100.851 18.2981 100.733 18.8253C100.646 19.3525 100.455 20.1286 100.162 21.1537L100.25 21.2855C101.363 19.4111 102.388 17.9174 103.325 16.8045C104.292 15.6622 105.244 14.8275 106.181 14.3004C107.118 13.7732 108.099 13.5096 109.124 13.5096C109.886 13.5096 110.516 13.6414 111.013 13.905C111.541 14.1686 111.921 14.5932 112.156 15.179C112.419 15.7355 112.551 16.453 112.551 17.3316C112.551 18.1517 112.375 19.1768 112.024 20.4069C111.702 21.6077 111.145 23.3796 110.354 25.7226C109.857 27.2163 109.461 28.4171 109.168 29.325C108.875 30.2329 108.656 30.9358 108.509 31.4337C108.363 31.9316 108.26 32.327 108.202 32.6199C108.173 32.8835 108.158 33.1471 108.158 33.4107C108.158 33.9671 108.304 34.2454 108.597 34.2454C108.89 34.2454 109.271 34.0696 109.739 33.7182C110.237 33.3374 110.838 32.7663 111.541 32.0048C112.244 31.2434 113.064 30.2769 114.001 29.1054L115.143 29.7204C114.645 30.6869 114.015 31.6534 113.254 32.6199C112.493 33.5571 111.672 34.4065 110.794 35.1679C109.915 35.9294 109.066 36.5445 108.246 37.0131C107.426 37.4524 106.708 37.672 106.093 37.672C105.361 37.672 104.775 37.3645 104.336 36.7495C103.926 36.1051 103.721 35.2558 103.721 34.2014C103.721 33.85 103.765 33.4546 103.853 33.0153C103.94 32.5467 104.102 31.917 104.336 31.1262C104.57 30.3354 104.907 29.2664 105.346 27.9192C105.815 26.5427 106.43 24.7708 107.191 22.6035Z" fill="white"/>
<path d="M118.838 37.672C117.374 37.672 116.217 37.1009 115.368 35.9587C114.519 34.8165 114.094 33.2642 114.094 31.3019C114.094 29.6911 114.357 28.051 114.885 26.3816C115.441 24.6829 116.188 23.0721 117.125 21.5491C118.092 20.0261 119.161 18.6642 120.332 17.4634C121.533 16.2333 122.792 15.2668 124.11 14.5639C125.428 13.861 126.717 13.5096 127.976 13.5096C129.851 13.5096 131.139 14.4761 131.842 16.4091L132.765 13.9489H136.411L133.907 20.6705C133.497 21.7834 133.087 22.9695 132.677 24.2289C132.296 25.4883 131.945 26.7184 131.623 27.9192C131.33 29.0907 131.095 30.1451 130.92 31.0823C130.744 32.0195 130.656 32.737 130.656 33.2349C130.656 34.0843 130.934 34.509 131.491 34.509C131.901 34.509 132.487 34.0843 133.248 33.2349C134.039 32.3856 134.918 31.2873 135.884 29.9401L137.026 30.8626C135.825 33.0006 134.507 34.67 133.072 35.8708C131.637 37.0716 130.261 37.672 128.943 37.672C128.269 37.672 127.742 37.4231 127.361 36.9252C127.01 36.398 126.834 35.5487 126.834 34.3772C126.834 34.1136 126.849 33.8061 126.878 33.4546C126.907 33.0739 126.937 32.6052 126.966 32.0488L126.79 32.0048C126.234 33.0885 125.516 34.055 124.637 34.9043C123.759 35.7537 122.807 36.4273 121.782 36.9252C120.786 37.4231 119.805 37.672 118.838 37.672ZM120.728 34.5529C121.548 34.5529 122.382 34.1868 123.232 33.4546C124.11 32.6931 124.945 31.6973 125.736 30.4672C126.556 29.2371 127.288 27.8899 127.932 26.4255C128.577 24.9611 129.089 23.526 129.47 22.1202C129.851 20.6851 130.041 19.3964 130.041 18.2542C130.041 17.4927 129.88 16.8923 129.558 16.453C129.236 16.0137 128.796 15.794 128.24 15.794C127.332 15.794 126.409 16.1308 125.472 16.8045C124.535 17.4488 123.642 18.3274 122.792 19.4404C121.943 20.524 121.167 21.7395 120.464 23.0867C119.79 24.4339 119.249 25.8105 118.838 27.2163C118.458 28.5928 118.267 29.8815 118.267 31.0823C118.267 32.1366 118.487 32.986 118.926 33.6303C119.395 34.2454 119.995 34.5529 120.728 34.5529Z" fill="white"/>
<path d="M137.436 27.4826C137.726 24.7951 136.513 22.0254 133.964 19.303C131.417 16.5817 127.568 13.9461 122.687 11.5473C112.927 6.7513 99.1164 2.9387 83.5694 1.26154C68.0224 -0.415622 53.7159 0.363734 43.1581 2.96801C37.8776 4.27054 33.5552 6.02469 30.4861 8.14009C27.4157 10.2563 25.6401 12.7036 25.3502 15.3912C25.0603 18.0788 26.2731 20.8484 28.8214 23.5708C31.3688 26.2921 35.2177 28.9277 40.0989 31.3265C49.8584 36.1225 63.6695 39.9351 79.2164 41.6123L79.1761 41.9859C48.0183 38.6247 23.7523 26.6998 24.9766 15.3509C26.2009 4.002 52.4518 -2.47329 83.6097 0.887923C114.768 4.24914 139.033 16.174 137.809 27.5229C136.585 38.8718 110.334 45.3471 79.1761 41.9859L79.2164 41.6123C94.7634 43.2894 109.07 42.5101 119.628 39.9058C124.908 38.6033 129.231 36.8491 132.3 34.7337C135.37 32.6175 137.146 30.1702 137.436 27.4826Z" fill="white" fill-opacity="0.6"/>
</svg>
